<?xml version="1.0" encoding="UTF-8" standalone="no"?>
<svg
  width="231"
  height="231"
  viewBox="0 0 231 231"
  fill="none"
  version="1.1"
  id="svg3"
  xmlns="http://www.w3.org/2000/svg"
  xmlns:svg="http://www.w3.org/2000/svg"
>
  <defs
    id="defs3"
  />
  <path
    d="m 156.07159,83.999976 c 0,12.1503 -9.85,22.000004 -22,22.000004 -12.151,0 -22.0004,-9.849704 -22.0004,-22.000004 0,-12.1503 9.8494,-22 22.0004,-22 12.15,0 22,9.8497 22,22 z"
    fill="#ffc131"
    id="path1"
  />
  <circle
    cx="-97.07119"
    cy="-146.99997"
    transform="scale(-1)"
    fill="#24c8db"
    id="ellipse1"
    r="22"
  />
  <path
    fill-rule="evenodd"
    clip-rule="evenodd"
    d="m 179.66659,154.54798 c -8.878,5.738 -18.715,9.721 -28.981,11.793 2.101,-6.059 3.243,-12.567 3.243,-19.341 0,-2.457 -0.15,-4.879 -0.442,-7.257 4.417,-1.539 8.657,-3.604 12.625,-6.168 9.547,-6.171 17.109,-14.967 21.778,-25.331 4.669,-10.364304 6.246,-21.856404 4.541,-33.095304 -1.704,-11.2389 -6.618,-21.7466 -14.15,-30.2604 -7.532,-8.5139 -17.362,-14.6718 -28.31,-17.7337 -10.947,-3.062 -22.546,-2.8978 -33.402,0.4728 -10.8561,3.3706 -20.508101,9.8043 -27.796301,18.5279 -0.9335,1.1174 -1.8231,2.2663 -2.6677,3.444 -11.2468,1.2495 -22.1397,4.4325 -32.2131,9.3563 3.2788,-10.497 8.6024,-20.2965 15.7161,-28.8114 10.3715,-12.4144 24.1071,-21.5699398 39.556401,-26.3665798 15.4496,-4.79663 31.9546,-5.03029 47.5336,-0.67288 15.579,4.35741 29.568,13.1204598 40.287,25.2363598 10.719,12.1159 17.711,27.069 20.137,43.0629 2.426,15.9938 0.181,32.348004 -6.463,47.097004 -6.644,14.749 -17.406,27.266 -30.992,36.047 z M 54.891689,74.274976 l 20.5926,2.5292 c 0.4902,-3.9912 1.3844,-7.9024 2.6581,-11.6768 -8.1673,1.8742 -16.005,4.9596 -23.2507,9.1476 z"
    fill="#ffc131"
    id="path2"
  />
  <path
    fill-rule="evenodd"
    clip-rule="evenodd"
    d="m 51.333089,76.451876 c 8.9448,-5.781 18.8632,-9.7807 29.2126,-11.8387 -2.3397,6.3537 -3.6171,13.2211 -3.6171,20.3869 0,2.1433 0.1143,4.2599 0.3371,6.3441 -4.3278,1.529 -8.4838,3.565 -12.3772,6.0814 -9.5471,6.170404 -17.1094,14.966404 -21.7783,25.330404 -4.669,10.364 -6.2459,21.856 -4.5413,33.095 1.7046,11.239 6.6181,21.747 14.1503,30.261 7.5321,8.514 17.3624,14.672 28.3097,17.734 10.9473,3.061 22.545901,2.897 33.401701,-0.473 10.857,-3.371 20.509,-9.805 27.797,-18.528 0.938,-1.123 1.832,-2.278 2.68,-3.462 11.256,-1.269 22.153,-4.473 32.226,-9.421 -3.276,10.528 -8.609,20.357 -15.741,28.894 -10.372,12.414 -24.107,21.57 -39.557,26.366 -15.449,4.797 -31.954601,5.031 -47.533401,0.673 -15.5788,-4.357 -29.5681,-13.12 -40.2869,-25.236 -10.7188,-12.116 -17.71113,-27.069 -20.136877,-43.063 -2.425743,-15.994 -0.181684,-32.348 6.462547,-47.097 6.64423,-14.749304 17.40593,-27.266304 30.99213,-36.047104 z M 175.99059,156.71098 v 0 c -0.108,0.062 -0.216,0.124 -0.324,0.186 0.108,-0.062 0.216,-0.124 0.324,-0.186 z"
    fill="#24c8db"
    id="path3"
  />
</svg>
